<?xml version="1.0" encoding="UTF-8" standalone="no"?>
<!-- Created with Inkscape (http://www.inkscape.org/) -->

<svg
   xmlns:dc="http://purl.org/dc/elements/1.1/"
   xmlns:cc="http://creativecommons.org/ns#"
   xmlns:rdf="http://www.w3.org/1999/02/22-rdf-syntax-ns#"
   xmlns:svg="http://www.w3.org/2000/svg"
   xmlns="http://www.w3.org/2000/svg"
   xmlns:sodipodi="http://sodipodi.sourceforge.net/DTD/sodipodi-0.dtd"
   xmlns:inkscape="http://www.inkscape.org/namespaces/inkscape"
   version="1.1"
   id="svg10"
   width="30"
   height="30"
   viewBox="0 0 30 30"
   sodipodi:docname="cog.svg"
   inkscape:version="0.92.4 (5da689c313, 2019-01-14)">
  <metadata
     id="metadata16">
    <rdf:RDF>
      <cc:Work
         rdf:about="">
        <dc:format>image/svg+xml</dc:format>
        <dc:type
           rdf:resource="http://purl.org/dc/dcmitype/StillImage" />
        <dc:title></dc:title>
      </cc:Work>
    </rdf:RDF>
  </metadata>
  <defs
     id="defs14" />
  <sodipodi:namedview
     pagecolor="#ffffff"
     bordercolor="#666666"
     borderopacity="1"
     objecttolerance="10"
     gridtolerance="10"
     guidetolerance="10"
     inkscape:pageopacity="0"
     inkscape:pageshadow="2"
     inkscape:window-width="1920"
     inkscape:window-height="1017"
     id="namedview12"
     showgrid="false"
     inkscape:zoom="17"
     inkscape:cx="9.0026423"
     inkscape:cy="17.849408"
     inkscape:window-x="-8"
     inkscape:window-y="-8"
     inkscape:window-maximized="1"
     inkscape:current-layer="g4539" />
  <g
     id="g4539"
     transform="translate(0,-70)">
    <path
       inkscape:connector-curvature="0"
       id="path3726"
       d="m 9.626421,76.320624 -3.1780749,-2.318125 -2.6920172,2.505071 2.3555146,3.065908 -1.159063,2.878963 -4.11280342,0.897339 0.0373892,3.551966 4.00063612,0.523448 1.2712303,3.065908 -2.3929038,3.252853 2.4676822,2.280738 3.3650207,-2.205959 2.8415732,1.233841 0.785172,3.963248 3.477189,0.07478 0.560837,-4.112804 2.878962,-1.159063 3.215464,2.205959 2.766795,-2.392904 -2.430292,-3.4398 1.046896,-2.729406 4.000636,-0.710393 0.03738,-3.477188 -3.813689,-0.673006 -1.420788,-2.953739 2.280737,-3.290244 -2.392904,-2.205958 -3.215464,2.093791 -2.99113,-1.084285 -0.710393,-4.224971 -3.327633,0.224335 -0.85995,3.85108 z"
       style="fill:none;stroke:#000000;stroke-width:0.63561511;stroke-linecap:butt;stroke-linejoin:miter;stroke-miterlimit:4;stroke-dasharray:none;stroke-opacity:1" />
    <ellipse
       style="fill:none;stroke:#000000;stroke-width:0.63561511;stroke-miterlimit:4;stroke-dasharray:none;stroke-opacity:1"
       ry="4.7110295"
       rx="4.8231969"
       cy="85.294022"
       cx="14.82351"
       id="path3728" />
  </g>
</svg>
